<svg xmlns="http://www.w3.org/2000/svg" viewBox="0 0 93 72.6"><path d="M91.5 37.83h-3.79V1.5a1.5 1.5 0 0 0-1.5-1.5H6.79a1.5 1.5 0 0 0-1.5 1.5v36.33H1.5a1.5 1.5 0 0 0-1.5 1.5v21.18A1.5 1.5 0 0 0 1.5 62H13v9.1a1.5 1.5 0 0 0 1.5 1.5h10.55a1.5 1.5 0 0 0 1.5-1.5V62h39.36v9.1a1.5 1.5 0 0 0 1.5 1.5H78a1.5 1.5 0 0 0 1.5-1.5V62h12a1.5 1.5 0 0 0 1.5-1.5V39.33a1.5 1.5 0 0 0-1.5-1.5ZM17.56 22.68a3.8 3.8 0 0 1 3.79-3.79h15.89a3.79 3.79 0 0 1 .83 7.49H20.52a3.8 3.8 0 0 1-2.96-3.7Zm-.18 6.7h2.87a6.77 6.77 0 0 0 1.1.1h15.89a6.77 6.77 0 0 0 1.1-.1h16.33a6.77 6.77 0 0 0 1.1.1h15.88a6.77 6.77 0 0 0 1.1-.1h2.87a9.1 9.1 0 0 1 9 7.59H8.45a9.48 9.48 0 0 1 8.93-7.6ZM52 22.68a3.8 3.8 0 0 1 3.79-3.79h15.86a3.79 3.79 0 0 1 .83 7.49H54.94a3.8 3.8 0 0 1-2.94-3.7ZM84.71 3v27.52a12.06 12.06 0 0 0-7.45-4 6.79 6.79 0 0 0-5.61-10.62H55.76a6.79 6.79 0 0 0-5.69 10.49h-7.14a6.79 6.79 0 0 0-5.69-10.49H21.35a6.79 6.79 0 0 0-5.6 10.63 12.37 12.37 0 0 0-7.45 4.18V3ZM23.55 69.6H16V62h7.59Zm52.94 0h-7.58V62h7.59ZM90 59H3V40.83h87Z" data-name="Layer 2"/></svg>